Coordinates
version=1
nRows=41
nColumns=38
inDegrees=no

Units are S.I. units (second, meters, Newtons, ...)
If the header above contains a line with 'inDegrees', this indicates whether rotational values are in degrees (yes) or radians (no).

endheader
time	pelvis_tilt	pelvis_list	pelvis_rotation	pelvis_tx	pelvis_ty	pelvis_tz	hip_flexion_r	hip_adduction_r	hip_rotation_r	knee_angle_r	ankle_angle_r	subtalar_angle_r	mtp_angle_r	hip_flexion_l	hip_adduction_l	hip_rotation_l	knee_angle_l	ankle_angle_l	subtalar_angle_l	mtp_angle_l	lumbar_extension	lumbar_bending	lumbar_rotation	arm_flex_r	arm_add_r	arm_rot_r	elbow_flex_r	pro_sup_r	wrist_flex_r	wrist_dev_r	arm_flex_l	arm_add_l	arm_rot_l	elbow_flex_l	pro_sup_l	wrist_flex_l	wrist_dev_l
2.22	-0.98151	1.49463	0.0491558	0.740908	1.34695	0.914499	0.228059	-0.0126331	-0.439162	0.275657	-0.00826353	0	0	0.0826306	-0.364261	-0.0193864	0.92424	-0.0929874	0	0	-0.274073	0.216336	0.148043	1.019	-0.332936	0.440375	0.732143	1.55905	0	0	-0.0409485	-0.375997	0.493286	0.764923	1.25145	0	0
2.23	-0.945365	1.49795	0.0231997	0.740864	1.34056	0.915797	0.215659	-0.0104727	-0.443327	0.270591	-0.00528238	0	0	0.104059	-0.360841	-0.00952851	0.95346	-0.0871574	0	0	-0.281289	0.216628	0.154812	1.03048	-0.337411	0.445129	0.715826	1.55998	0	0	-0.0397182	-0.378049	0.493789	0.769312	1.24394	0	0
2.24	-0.898382	1.50201	-0.0142217	0.740756	1.33419	0.917175	0.20293	-0.00915217	-0.44724	0.266031	-0.00128106	0	0	0.123801	-0.355741	-0.000249015	0.981484	-0.0721547	0	0	-0.289168	0.215416	0.161674	1.03993	-0.342038	0.447914	0.701199	1.56267	0	0	-0.0384268	-0.379856	0.493216	0.772619	1.23562	0	0
2.25	-0.835291	1.50946	-0.0681778	0.740452	1.32808	0.918893	0.19075	-0.011803	-0.450119	0.262715	0.00264311	0	0	0.139636	-0.337978	0.0214313	1.00502	-0.0495394	0	0	-0.298337	0.209825	0.167651	1.04752	-0.345806	0.447592	0.687795	1.56597	0	0	-0.0359864	-0.381539	0.491796	0.774001	1.227	0	0
2.26	-0.782051	1.51481	-0.113717	0.740328	1.32192	0.920238	0.180248	-0.0125488	-0.452983	0.260233	0.0069576	0	0	0.158983	-0.329559	0.0274793	1.03154	-0.0238288	0	0	-0.305628	0.206329	0.174556	1.05313	-0.349234	0.44632	0.675113	1.56865	0	0	-0.0350573	-0.382824	0.491745	0.775173	1.21982	0	0
2.27	-0.723743	1.5209	-0.165318	0.740237	1.31587	0.921563	0.171063	-0.0146077	-0.455854	0.259257	0.0117919	0	0	0.176974	-0.319134	0.0321365	1.05276	-0.00216172	0	0	-0.312445	0.20169	0.181668	1.05695	-0.35309	0.444656	0.664268	1.57032	0	0	-0.0340838	-0.383727	0.494322	0.774735	1.21384	0	0
2.28	-0.652998	1.53057	-0.229614	0.740078	1.31008	0.923003	0.165152	-0.0220855	-0.461588	0.262927	0.0196039	0	0	0.191438	-0.297507	0.0452833	1.06419	0.0133921	0	0	-0.318609	0.192966	0.187688	1.0584	-0.357166	0.44066	0.656543	1.5708	0	0	-0.0324313	-0.384229	0.495544	0.773538	1.20542	0	0
2.29	-0.692052	1.54086	-0.187787	0.739433	1.3038	0.92326	0.17564	-0.0440856	-0.50693	0.300188	0.0437834	0	0	0.212535	-0.282977	0.0452318	1.07767	0.0240625	0	0	-0.319038	0.182819	0.19612	1.05607	-0.360136	0.434162	0.652198	1.56998	0	0	-0.0337729	-0.386904	0.494746	0.776118	1.19674	0	0
2.3	-0.654807	1.5481	-0.22019	0.739469	1.29801	0.924185	0.171145	-0.0480566	-0.509815	0.30242	0.0492549	0	0	0.229797	-0.268264	0.0482711	1.08622	0.0309022	0	0	-0.322729	0.177184	0.202874	1.05212	-0.363854	0.426807	0.651291	1.56827	0	0	-0.0346805	-0.386195	0.492612	0.775609	1.18928	0	0
2.31	-0.591029	1.55456	-0.279517	0.739562	1.29225	0.925057	0.166108	-0.0507273	-0.511563	0.303245	0.0540041	0	0	0.24597	-0.254029	0.0500757	1.09141	0.0367247	0	0	-0.326324	0.172289	0.209153	1.04662	-0.366855	0.419244	0.652129	1.5699	0	0	-0.0369046	-0.384393	0.485251	0.774386	1.20467	0	0
2.32	-0.499304	1.56066	-0.367068	0.739705	1.28646	0.925801	0.161472	-0.0528111	-0.51361	0.303817	0.0592425	0	0	0.261783	-0.240025	0.0508542	1.09408	0.0433528	0	0	-0.32905	0.16772	0.215046	1.03953	-0.369599	0.413249	0.654966	1.56831	0	0	-0.0396904	-0.383922	0.482704	0.775442	1.19498	0	0
2.33	-0.0597068	1.56028	-0.800637	0.740426	1.281	0.92748	0.135359	-0.0311964	-0.464615	0.257726	0.0407259	0	0	0.271363	-0.228459	0.0539253	1.09248	0.0506806	0	0	-0.336977	0.168929	0.21962	1.03284	-0.372481	0.411203	0.657904	1.56696	0	0	-0.0418797	-0.38033	0.480711	0.772755	1.19026	0	0
2.34	0.378544	1.56188	-1.23587	0.740605	1.27508	0.928318	0.125444	-0.02854	-0.458419	0.249683	0.040383	0	0	0.282922	-0.216992	0.0515054	1.09011	0.0601535	0	0	-0.341029	0.16569	0.224847	1.02441	-0.372879	0.410818	0.659752	1.56639	0	0	-0.0462885	-0.379809	0.478276	0.773027	1.18672	0	0
2.35	0.866404	1.56216	-1.72011	0.740832	1.26921	0.928991	0.117074	-0.0266749	-0.456113	0.244135	0.0428151	0	0	0.295073	-0.205552	0.0490677	1.08654	0.0698991	0	0	-0.343823	0.162571	0.228391	1.0152	-0.37196	0.411352	0.660673	1.56945	0	0	-0.0515717	-0.379878	0.476167	0.773819	1.18456	0	0
2.36	1.24985	1.56041	-2.0999	0.741097	1.26338	0.929644	0.108446	-0.0248392	-0.45493	0.238998	0.0457752	0	0	0.306044	-0.194279	0.0463532	1.08091	0.0783024	0	0	-0.346824	0.159501	0.230912	1.00583	-0.370391	0.414231	0.662178	1.5674	0	0	-0.0573514	-0.38067	0.476109	0.775727	1.17279	0	0
2.37	1.45874	1.55777	-2.30518	0.741365	1.25759	0.93029	0.0995764	-0.0226773	-0.454816	0.234055	0.0487615	0	0	0.315861	-0.183365	0.0437819	1.07332	0.0846532	0	0	-0.350147	0.156634	0.232838	0.995471	-0.367311	0.410901	0.665119	1.5708	0	0	-0.0633346	-0.380763	0.473303	0.776486	1.17637	0	0
2.38	1.58049	1.55477	-2.42315	0.741676	1.25187	0.93092	0.0902986	-0.0203699	-0.455017	0.228658	0.0517313	0	0	0.324752	-0.172292	0.041656	1.06396	0.0892633	0	0	-0.353617	0.153783	0.233615	0.984509	-0.363664	0.407434	0.670568	1.5708	0	0	-0.069718	-0.380492	0.46861	0.776846	1.17963	0	0
2.39	1.65778	1.55157	-2.49631	0.742075	1.24619	0.931511	0.0806661	-0.0180889	-0.455599	0.222945	0.0547488	0	0	0.332741	-0.160794	0.0402194	1.05296	0.0930959	0	0	-0.356949	0.150976	0.233116	0.972544	-0.359245	0.402746	0.67923	1.5708	0	0	-0.0764537	-0.380003	0.463139	0.776808	1.18263	0	0
2.4	1.7141	1.54825	-2.54893	0.742459	1.24056	0.932057	0.0711027	-0.0159576	-0.456511	0.217227	0.0577266	0	0	0.339847	-0.149183	0.0385986	1.04036	0.0975123	0	0	-0.360263	0.147977	0.232155	0.959601	-0.354466	0.396998	0.692655	1.5708	0	0	-0.0830943	-0.37966	0.460704	0.776489	1.18836	0	0
2.41	1.75663	1.54509	-2.58845	0.742815	1.23491	0.932541	0.0616833	-0.0136492	-0.457086	0.211674	0.0607553	0	0	0.346071	-0.137995	0.0362404	1.0261	0.102896	0	0	-0.363402	0.144914	0.231008	0.945615	-0.349248	0.389129	0.711638	1.5708	0	0	-0.089869	-0.379306	0.458104	0.776005	1.1947	0	0
2.42	1.794	1.54244	-2.62342	0.743091	1.2293	0.932927	0.052922	-0.0107661	-0.457236	0.206055	0.0634998	0	0	0.351946	-0.127517	0.0332971	1.01039	0.108228	0	0	-0.36627	0.142032	0.229684	0.930937	-0.343003	0.376978	0.735479	1.5708	0	0	-0.0967483	-0.378819	0.454737	0.775477	1.2006	0	0
2.43	1.83313	1.54031	-2.66078	0.743311	1.22374	0.933223	0.0449061	-0.0075004	-0.456974	0.200361	0.0658584	0	0	0.357694	-0.117493	0.0300778	0.993348	0.113404	0	0	-0.368833	0.139341	0.228495	0.915622	-0.336097	0.360711	0.763357	1.5708	0	0	-0.103287	-0.37835	0.454273	0.774774	1.2094	0	0
2.44	1.86777	1.53837	-2.69438	0.743532	1.21823	0.933463	0.0371588	-0.00423004	-0.456573	0.194836	0.0680205	0	0	0.362809	-0.107751	0.0262208	0.974768	0.11799	0	0	-0.37129	0.136808	0.227606	0.899282	-0.32821	0.340603	0.794337	1.5708	0	0	-0.109351	-0.37761	0.454441	0.77336	1.22031	0	0
2.45	1.89861	1.53672	-2.72502	0.743754	1.21278	0.933649	0.0297277	-0.000891513	-0.456129	0.189536	0.07003	0	0	0.367466	-0.098598	0.0213274	0.95487	0.121724	0	0	-0.373604	0.134518	0.227019	0.882797	-0.318821	0.320534	0.825083	1.5708	0	0	-0.115118	-0.376559	0.455116	0.771575	1.22858	0	0
2.46	1.91978	1.53554	-2.7469	0.743964	1.20735	0.933812	0.0225397	0.0028386	-0.455715	0.184481	0.0717435	0	0	0.371504	-0.0904123	0.0153316	0.93372	0.124586	0	0	-0.376034	0.132599	0.227117	0.866445	-0.308194	0.305528	0.854349	1.5708	0	0	-0.120342	-0.375245	0.45698	0.769445	1.23652	0	0
2.47	1.93169	1.53502	-2.76033	0.744158	1.20198	0.933956	0.0155914	0.00721608	-0.455015	0.179488	0.0728748	0	0	0.375031	-0.0831682	0.00880237	0.91141	0.126714	0	0	-0.378539	0.131271	0.227949	0.851465	-0.297091	0.293625	0.879641	1.5708	0	0	-0.125014	-0.373676	0.460045	0.767128	1.24402	0	0
2.48	1.94134	1.53505	-2.77238	0.744371	1.19666	0.934075	0.00897321	0.0119083	-0.453744	0.174639	0.0735105	0	0	0.378194	-0.0764815	0.00200148	0.888087	0.128132	0	0	-0.381118	0.130326	0.229582	0.838066	-0.285767	0.281928	0.901477	1.5708	0	0	-0.129305	-0.371796	0.463863	0.764832	1.25108	0	0
2.49	1.94783	1.53537	-2.78248	0.744581	1.1914	0.93416	0.00279856	0.0165391	-0.45222	0.17052	0.0741377	0	0	0.380899	-0.0702768	-0.00558428	0.863871	0.128464	0	0	-0.383943	0.12954	0.232331	0.826473	-0.274	0.269946	0.919642	1.5708	0	0	-0.133004	-0.369624	0.468409	0.762742	1.25729	0	0
2.5	1.94968	1.53591	-2.78883	0.744763	1.18618	0.934209	-0.00298445	0.0210889	-0.45013	0.167111	0.0746835	0	0	0.383069	-0.0644895	-0.013742	0.838718	0.127914	0	0	-0.386914	0.128832	0.235876	0.816462	-0.261118	0.25793	0.933056	1.5708	0	0	-0.136172	-0.367327	0.473767	0.760731	1.26324	0	0
2.51	1.95627	1.53643	-2.80053	0.744981	1.18102	0.93422	-0.00796318	0.024969	-0.447593	0.165037	0.0755742	0	0	0.384811	-0.0585545	-0.0225438	0.812279	0.127003	0	0	-0.389607	0.127847	0.2399	0.807706	-0.248086	0.246172	0.942503	1.5708	0	0	-0.138757	-0.364935	0.479853	0.758711	1.26964	0	0
2.52	1.96567	1.53666	-2.81562	0.745229	1.17588	0.934235	-0.0124003	0.0280655	-0.444531	0.164438	0.0770733	0	0	0.386034	-0.0524768	-0.0321329	0.785125	0.125819	0	0	-0.392193	0.126251	0.244548	0.799391	-0.23516	0.233217	0.95	1.5708	0	0	-0.140563	-0.362687	0.486655	0.756895	1.27717	0	0
2.53	1.97806	1.53644	-2.83424	0.745533	1.17076	0.934261	-0.0164612	0.030308	-0.440627	0.164851	0.0790633	0	0	0.386626	-0.0460385	-0.0426308	0.757232	0.124858	0	0	-0.394717	0.123968	0.249787	0.790764	-0.22277	0.220232	0.957632	1.5708	0	0	-0.141524	-0.360565	0.49425	0.755097	1.28465	0	0
2.54	1.99093	1.53597	-2.85379	0.745881	1.16564	0.934293	-0.0203399	0.0320746	-0.435981	0.165803	0.0812096	0	0	0.386588	-0.039491	-0.0541436	0.72854	0.124603	0	0	-0.397123	0.121191	0.255517	0.782478	-0.211939	0.209281	0.965385	1.5708	0	0	-0.141895	-0.358731	0.502621	0.753929	1.29117	0	0
2.55	2.00024	1.53489	-2.87045	0.746247	1.16052	0.934372	-0.024328	0.0330729	-0.430489	0.167125	0.0836003	0	0	0.385169	-0.0323635	-0.0664864	0.698096	0.123872	0	0	-0.399704	0.117542	0.261619	0.774924	-0.203138	0.201181	0.972904	1.5708	0	0	-0.141802	-0.357063	0.510668	0.753266	1.29748	0	0
2.56	2.01601	1.53369	-2.89364	0.746681	1.15545	0.934444	-0.0279481	0.0336873	-0.425026	0.16869	0.085945	0	0	0.38352	-0.024681	-0.0782516	0.667117	0.122956	0	0	-0.401858	0.113703	0.267487	0.76706	-0.194391	0.193165	0.979788	1.5708	0	0	-0.141763	-0.354645	0.515003	0.752216	1.31796	0	0
2.57	2.04966	1.53286	-2.93448	0.747184	1.15047	0.934432	-0.0307838	0.034443	-0.419989	0.170194	0.0880836	0	0	0.382495	-0.0167059	-0.0886352	0.635986	0.122117	0	0	-0.402916	0.11013	0.273058	0.75877	-0.186022	0.183786	0.98664	1.5708	0	0	-0.141536	-0.352758	0.521516	0.752362	1.32486	0	0
2.58	2.08856	1.53211	-2.98053	0.747749	1.14555	0.934381	-0.0337957	0.0352718	-0.41527	0.171072	0.0901945	0	0	0.381382	-0.00848562	-0.0984734	0.604337	0.120427	0	0	-0.403477	0.106681	0.278422	0.750118	-0.178273	0.173739	0.994219	1.5708	0	0	-0.141295	-0.351296	0.529309	0.753388	1.33126	0	0
2.59	2.12333	1.53129	-3.02213	0.748362	1.14069	0.934323	-0.0378444	0.0364032	-0.410643	0.169914	0.0919742	0	0	0.379735	4.19838e-05	-0.107217	0.572166	0.117829	0	0	-0.403988	0.103329	0.283259	0.741668	-0.171531	0.165304	1.00224	1.5708	0	0	-0.141051	-0.350174	0.537172	0.755042	1.34139	0	0
2.6	2.16148	1.53037	-3.06658	0.749003	1.1359	0.934198	-0.0422756	0.037732	-0.405861	0.1673	0.0934112	0	0	0.377996	0.00904711	-0.113967	0.539964	0.11452	0	0	-0.404224	0.100016	0.287069	0.733795	-0.165139	0.159197	1.0102	1.5708	0	0	-0.141204	-0.348518	0.537233	0.75799	1.34062	0	0
2.61	2.19416	1.52921	-3.1052	0.749724	1.13119	0.93403	-0.0473563	0.0388827	-0.401069	0.163818	0.0947507	0	0	0.375585	0.018484	-0.119815	0.507624	0.111778	0	0	-0.404236	0.0967259	0.290321	0.72636	-0.159511	0.154766	1.01803	1.5708	0	0	-0.140513	-0.34956	0.548371	0.764394	1.30545	0	0
2.62	2.21531	1.52794	-3.13201	0.750568	1.12652	0.933861	-0.0534026	0.0399574	-0.395838	0.159462	0.0958303	0	0	0.371655	0.0282848	-0.124573	0.473918	0.109028	0	0	-0.404552	0.0935737	0.29256	0.719751	-0.154044	0.152102	1.02552	1.5708	0	0	-0.141136	-0.347973	0.54783	0.768227	1.31436	0	0
